# WaveFront *.obj file (generated by Autodesk ATF)

mtllib EEC.16_CBM_Travail_de_session_01v2.mtl

g Solid1

v 0.000000 0.000000 0.000000
v -0.000000 0.000000 -7930.000000
v -0.000000 20981.000000 -7930.000000
v 0.000000 20981.000000 0.000000
v -300.000000 0.000000 0.000000
v -300.000000 20981.000000 0.000000
v -300.000000 0.000000 -7930.000000
v -300.000000 20981.000000 -7930.000000
vt -0.000000 0.000000 0.000000
vt 43.812154 0.000000 0.000000
vt -0.000000 115.917126 0.000000
vt 43.812154 115.917126 0.000000
vt 1.657459 0.000000 0.000000
vt 1.657459 115.917126 0.000000
vt 0.000000 0.000000 0.000000
vt 0.000000 115.917126 0.000000
vt 0.000000 0.000000 0.000000
vt 43.812154 0.000000 0.000000
vt 0.000000 115.917126 0.000000
vt 43.812154 115.917126 0.000000
vt 1.657459 0.000000 0.000000
vt 1.657459 115.917126 0.000000
vt -0.000000 0.000000 0.000000
vt -0.000000 115.917126 0.000000
vt -21.906077 -0.828729 0.000000
vt 21.906077 -0.828729 0.000000
vt -21.906077 0.828729 0.000000
vt 21.906077 0.828729 0.000000
vt 21.906077 0.828729 0.000000
vt -21.906077 0.828729 0.000000
vt 21.906077 -0.828729 0.000000
vt -21.906077 -0.828729 0.000000
vn 0.100000 0.000000 -0.000000
vn 0.100000 0.000000 -0.000000
vn 0.100000 0.000000 -0.000000
vn 0.100000 0.000000 -0.000000
vn 0.000000 -0.000000 0.100000
vn 0.000000 -0.000000 0.100000
vn 0.000000 -0.000000 0.100000
vn 0.000000 -0.000000 0.100000
vn -0.100000 0.000000 0.000000
vn -0.100000 0.000000 0.000000
vn -0.100000 0.000000 0.000000
vn -0.100000 0.000000 0.000000
vn 0.000000 0.000000 -0.100000
vn 0.000000 0.000000 -0.100000
vn 0.000000 0.000000 -0.100000
vn 0.000000 0.000000 -0.100000
vn 0.000000 0.100000 0.000000
vn 0.000000 0.100000 0.000000
vn 0.000000 0.100000 0.000000
vn 0.000000 0.100000 0.000000
vn 0.000000 -0.100000 0.000000
vn 0.000000 -0.100000 0.000000
vn 0.000000 -0.100000 0.000000
vn 0.000000 -0.100000 0.000000
usemtl 255,255,255
f 1/1/1 2/2/2 4/3/3
f 4/3/3 2/2/2 3/4/4
f 1/5/5 4/6/6 5/7/7
f 5/7/7 4/6/6 6/8/8
f 7/9/9 5/10/10 8/11/11
f 8/11/11 5/10/10 6/12/12
f 7/13/13 8/14/14 2/15/15
f 2/15/15 8/14/14 3/16/16
f 8/17/17 6/18/18 3/19/19
f 3/19/19 6/18/18 4/20/20
f 2/21/21 1/22/22 7/23/23
f 7/23/23 1/22/22 5/24/24

g Solid1:1

v -300.000000 0.000000 -0.000000
v -300.000000 0.000000 -905.000000
v -300.000000 20981.000000 -905.000000
v -300.000000 20981.000000 -0.000000
v -600.000000 -0.000000 0.000000
v -600.000000 20981.000000 0.000000
v -600.000000 -0.000000 -905.000000
v -600.000000 20981.000000 -905.000000
vt -0.000000 0.000000 0.000000
vt 5.000000 0.000000 0.000000
vt -0.000000 115.917126 0.000000
vt 5.000000 115.917126 0.000000
vt 1.657459 0.000000 0.000000
vt 1.657459 115.917126 0.000000
vt 0.000000 0.000000 0.000000
vt 0.000000 115.917126 0.000000
vt 0.000000 0.000000 0.000000
vt 5.000000 0.000000 0.000000
vt 0.000000 115.917126 0.000000
vt 5.000000 115.917126 0.000000
vt 1.657459 0.000000 0.000000
vt 1.657459 115.917126 0.000000
vt -0.000000 0.000000 0.000000
vt -0.000000 115.917126 0.000000
vt -2.500000 -0.828729 0.000000
vt 2.500000 -0.828729 0.000000
vt -2.500000 0.828729 0.000000
vt 2.500000 0.828729 0.000000
vt 2.500000 0.828729 0.000000
vt -2.500000 0.828729 0.000000
vt 2.500000 -0.828729 0.000000
vt -2.500000 -0.828729 0.000000
vn 0.100000 0.000000 -0.000000
vn 0.100000 0.000000 -0.000000
vn 0.100000 0.000000 -0.000000
vn 0.100000 0.000000 -0.000000
vn 0.000000 0.000000 0.100000
vn 0.000000 0.000000 0.100000
vn 0.000000 0.000000 0.100000
vn 0.000000 0.000000 0.100000
vn -0.100000 -0.000000 0.000000
vn -0.100000 -0.000000 0.000000
vn -0.100000 -0.000000 0.000000
vn -0.100000 -0.000000 0.000000
vn -0.000000 -0.000000 -0.100000
vn -0.000000 -0.000000 -0.100000
vn -0.000000 -0.000000 -0.100000
vn -0.000000 -0.000000 -0.100000
vn -0.000000 0.100000 0.000000
vn -0.000000 0.100000 0.000000
vn -0.000000 0.100000 0.000000
vn -0.000000 0.100000 0.000000
vn 0.000000 -0.100000 -0.000000
vn 0.000000 -0.100000 -0.000000
vn 0.000000 -0.100000 -0.000000
vn 0.000000 -0.100000 -0.000000
f 9/25/25 10/26/26 12/27/27
f 12/27/27 10/26/26 11/28/28
f 9/29/29 12/30/30 13/31/31
f 13/31/31 12/30/30 14/32/32
f 15/33/33 13/34/34 16/35/35
f 16/35/35 13/34/34 14/36/36
f 15/37/37 16/38/38 10/39/39
f 10/39/39 16/38/38 11/40/40
f 16/41/41 14/42/42 11/43/43
f 11/43/43 14/42/42 12/44/44
f 10/45/45 9/46/46 15/47/47
f 15/47/47 9/46/46 13/48/48

g Solid1:2

v -300.000000 905.000000 -7025.000000
v -300.000000 -0.000000 -7025.000000
v -600.000000 -0.000000 -7025.000000
v -600.000000 905.000000 -7025.000000
v -300.000000 -0.000000 -905.000000
v -300.000000 905.000000 -905.000000
v -600.000000 905.000000 -905.000000
v -600.000000 -0.000000 -905.000000
vt -0.000000 1.657459 0.000000
vt -5.000000 1.657459 0.000000
vt -0.000000 0.000000 0.000000
vt -5.000000 0.000000 0.000000
vt -0.000000 1.657459 0.000000
vt -5.000000 1.657459 0.000000
vt -0.000000 0.000000 0.000000
vt -5.000000 0.000000 0.000000
vt 5.000000 38.812154 0.000000
vt -0.000000 38.812154 0.000000
vt 5.000000 5.000000 0.000000
vt 0.000000 5.000000 0.000000
vt 1.657459 38.812154 0.000000
vt 0.000000 38.812154 0.000000
vt 1.657459 5.000000 0.000000
vt 0.000000 5.000000 0.000000
vt 5.000000 38.812154 0.000000
vt 0.000000 38.812154 0.000000
vt 5.000000 5.000000 0.000000
vt 0.000000 5.000000 0.000000
vt 1.657459 38.812154 0.000000
vt -0.000000 38.812154 0.000000
vt 1.657459 5.000000 0.000000
vt -0.000000 5.000000 0.000000
vn -0.000000 0.000000 -0.100000
vn -0.000000 0.000000 -0.100000
vn -0.000000 0.000000 -0.100000
vn -0.000000 0.000000 -0.100000
vn 0.000000 0.000000 0.100000
vn 0.000000 0.000000 0.100000
vn 0.000000 0.000000 0.100000
vn 0.000000 0.000000 0.100000
vn 0.100000 0.000000 -0.000000
vn 0.100000 0.000000 -0.000000
vn 0.100000 0.000000 -0.000000
vn 0.100000 0.000000 -0.000000
vn -0.000000 0.100000 0.000000
vn -0.000000 0.100000 0.000000
vn -0.000000 0.100000 0.000000
vn -0.000000 0.100000 0.000000
vn -0.100000 -0.000000 0.000000
vn -0.100000 -0.000000 0.000000
vn -0.100000 -0.000000 0.000000
vn -0.100000 -0.000000 0.000000
vn 0.000000 -0.100000 -0.000000
vn 0.000000 -0.100000 -0.000000
vn 0.000000 -0.100000 -0.000000
vn 0.000000 -0.100000 -0.000000
f 17/49/49 18/50/50 20/51/51
f 20/51/51 18/50/50 19/52/52
f 21/53/53 22/54/54 24/55/55
f 24/55/55 22/54/54 23/56/56
f 18/57/57 17/58/58 21/59/59
f 21/59/59 17/58/58 22/60/60
f 17/61/61 20/62/62 22/63/63
f 22/63/63 20/62/62 23/64/64
f 20/65/65 19/66/66 23/67/67
f 23/67/67 19/66/66 24/68/68
f 19/69/69 18/70/70 24/71/71
f 24/71/71 18/70/70 21/72/72

g Solid1:3

v -300.000000 20076.000000 -905.000000
v -300.000000 20981.000000 -905.000000
v -600.000000 20981.000000 -905.000000
v -600.000000 20076.000000 -905.000000
v -300.000000 20981.000000 -7025.000000
v -300.000000 20076.000000 -7025.000000
v -600.000000 20076.000000 -7025.000000
v -600.000000 20981.000000 -7025.000000
vt -0.000000 1.657459 0.000000
vt -5.000000 1.657459 0.000000
vt -0.000000 0.000000 0.000000
vt -5.000000 0.000000 0.000000
vt 0.000000 1.657459 0.000000
vt -5.000000 1.657459 0.000000
vt 0.000000 0.000000 0.000000
vt -5.000000 0.000000 0.000000
vt -0.000000 5.000000 0.000000
vt 5.000000 5.000000 0.000000
vt -0.000000 38.812154 0.000000
vt 5.000000 38.812154 0.000000
vt -0.000000 5.000000 0.000000
vt 1.657459 5.000000 0.000000
vt -0.000000 38.812154 0.000000
vt 1.657459 38.812154 0.000000
vt 0.000000 5.000000 0.000000
vt 1.657459 5.000000 0.000000
vt 0.000000 38.812154 0.000000
vt 1.657459 38.812154 0.000000
vt 0.000000 5.000000 0.000000
vt 5.000000 5.000000 0.000000
vt 0.000000 38.812154 0.000000
vt 5.000000 38.812154 0.000000
vn 0.000000 -0.000000 0.100000
vn 0.000000 -0.000000 0.100000
vn 0.000000 -0.000000 0.100000
vn 0.000000 -0.000000 0.100000
vn -0.000000 0.000000 -0.100000
vn -0.000000 0.000000 -0.100000
vn -0.000000 0.000000 -0.100000
vn -0.000000 0.000000 -0.100000
vn 0.100000 0.000000 -0.000000
vn 0.100000 0.000000 -0.000000
vn 0.100000 0.000000 -0.000000
vn 0.100000 0.000000 -0.000000
vn 0.000000 -0.100000 -0.000000
vn 0.000000 -0.100000 -0.000000
vn 0.000000 -0.100000 -0.000000
vn 0.000000 -0.100000 -0.000000
vn -0.000000 0.100000 0.000000
vn -0.000000 0.100000 0.000000
vn -0.000000 0.100000 0.000000
vn -0.000000 0.100000 0.000000
vn -0.100000 -0.000000 0.000000
vn -0.100000 -0.000000 0.000000
vn -0.100000 -0.000000 0.000000
vn -0.100000 -0.000000 0.000000
f 25/73/73 26/74/74 28/75/75
f 28/75/75 26/74/74 27/76/76
f 29/77/77 30/78/78 32/79/79
f 32/79/79 30/78/78 31/80/80
f 26/81/81 25/82/82 29/83/83
f 29/83/83 25/82/82 30/84/84
f 25/85/85 28/86/86 30/87/87
f 30/87/87 28/86/86 31/88/88
f 27/89/89 26/90/90 32/91/91
f 32/91/91 26/90/90 29/92/92
f 28/93/93 27/94/94 31/95/95
f 31/95/95 27/94/94 32/96/96

g Solid1:4

v -300.000000 -0.000000 -7025.000000
v -300.000000 -0.000000 -7930.000000
v -300.000000 20981.000000 -7930.000000
v -300.000000 20981.000000 -7025.000000
v -600.000000 -0.000000 -7025.000000
v -600.000000 20981.000000 -7025.000000
v -600.000000 -0.000000 -7930.000000
v -600.000000 20981.000000 -7930.000000
vt -0.000000 0.000000 0.000000
vt 5.000000 0.000000 0.000000
vt -0.000000 115.917126 0.000000
vt 5.000000 115.917126 0.000000
vt 1.657459 0.000000 0.000000
vt 1.657459 115.917126 0.000000
vt 0.000000 0.000000 0.000000
vt 0.000000 115.917126 0.000000
vt 0.000000 0.000000 0.000000
vt 5.000000 0.000000 0.000000
vt 0.000000 115.917126 0.000000
vt 5.000000 115.917126 0.000000
vt 1.657459 0.000000 0.000000
vt 1.657459 115.917126 0.000000
vt -0.000000 0.000000 0.000000
vt -0.000000 115.917126 0.000000
vt -2.500000 -0.828729 0.000000
vt 2.500000 -0.828729 0.000000
vt -2.500000 0.828729 0.000000
vt 2.500000 0.828729 0.000000
vt 2.500000 0.828729 0.000000
vt -2.500000 0.828729 0.000000
vt 2.500000 -0.828729 0.000000
vt -2.500000 -0.828729 0.000000
vn 0.100000 0.000000 -0.000000
vn 0.100000 0.000000 -0.000000
vn 0.100000 0.000000 -0.000000
vn 0.100000 0.000000 -0.000000
vn 0.000000 0.000000 0.100000
vn 0.000000 0.000000 0.100000
vn 0.000000 0.000000 0.100000
vn 0.000000 0.000000 0.100000
vn -0.100000 -0.000000 0.000000
vn -0.100000 -0.000000 0.000000
vn -0.100000 -0.000000 0.000000
vn -0.100000 -0.000000 0.000000
vn -0.000000 -0.000000 -0.100000
vn -0.000000 -0.000000 -0.100000
vn -0.000000 -0.000000 -0.100000
vn -0.000000 -0.000000 -0.100000
vn -0.000000 0.100000 -0.000000
vn -0.000000 0.100000 -0.000000
vn -0.000000 0.100000 -0.000000
vn -0.000000 0.100000 -0.000000
vn 0.000000 -0.100000 0.000000
vn 0.000000 -0.100000 0.000000
vn 0.000000 -0.100000 0.000000
vn 0.000000 -0.100000 0.000000
f 33/97/97 34/98/98 36/99/99
f 36/99/99 34/98/98 35/100/100
f 33/101/101 36/102/102 37/103/103
f 37/103/103 36/102/102 38/104/104
f 39/105/105 37/106/106 40/107/107
f 40/107/107 37/106/106 38/108/108
f 39/109/109 40/110/110 34/111/111
f 34/111/111 40/110/110 35/112/112
f 40/113/113 38/114/114 35/115/115
f 35/115/115 38/114/114 36/116/116
f 34/117/117 33/118/118 39/119/119
f 39/119/119 33/118/118 37/120/120

g Solid1:5

v -600.000000 300.000000 -300.000000
v -600.000000 300.000000 -605.000000
v -600.000000 20681.000000 -605.000000
v -600.000000 20681.000000 -300.000000
v -2250.000000 300.000000 -300.000000
v -2250.000000 20681.000000 -300.000000
v -2250.000000 300.000000 -605.000000
v -2250.000000 20681.000000 -605.000000
vt 0.750492 0.000000 0.000000
vt 0.750492 50.150098 0.000000
vt -0.000000 0.000000 0.000000
vt -0.000000 50.150098 0.000000
vt 0.000000 0.000000 0.000000
vt 4.060039 0.000000 0.000000
vt 0.000000 50.150098 0.000000
vt 4.060039 50.150098 0.000000
vt 0.750492 0.000000 0.000000
vt 0.750492 50.150098 0.000000
vt 0.000000 0.000000 0.000000
vt 0.000000 50.150098 0.000000
vt -0.000000 0.000000 0.000000
vt 4.060039 0.000000 0.000000
vt -0.000000 50.150098 0.000000
vt 4.060039 50.150098 0.000000
vt -0.375246 -2.030020 0.000000
vt 0.375246 -2.030020 0.000000
vt -0.375246 2.030020 0.000000
vt 0.375246 2.030020 0.000000
vt 0.375246 2.030020 0.000000
vt -0.375246 2.030020 0.000000
vt 0.375246 -2.030020 0.000000
vt -0.375246 -2.030020 0.000000
vn 0.100000 -0.000000 -0.000000
vn 0.100000 -0.000000 -0.000000
vn 0.100000 -0.000000 -0.000000
vn 0.100000 -0.000000 -0.000000
vn 0.000000 0.000000 0.100000
vn 0.000000 0.000000 0.100000
vn 0.000000 0.000000 0.100000
vn 0.000000 0.000000 0.100000
vn -0.100000 0.000000 0.000000
vn -0.100000 0.000000 0.000000
vn -0.100000 0.000000 0.000000
vn -0.100000 0.000000 0.000000
vn -0.000000 -0.000000 -0.100000
vn -0.000000 -0.000000 -0.100000
vn -0.000000 -0.000000 -0.100000
vn -0.000000 -0.000000 -0.100000
vn 0.000000 0.100000 -0.000000
vn 0.000000 0.100000 -0.000000
vn 0.000000 0.100000 -0.000000
vn 0.000000 0.100000 -0.000000
vn -0.000000 -0.100000 0.000000
vn -0.000000 -0.100000 0.000000
vn -0.000000 -0.100000 0.000000
vn -0.000000 -0.100000 0.000000
usemtl 255,255,255_1
f 42/121/121 43/122/122 41/123/123
f 41/123/123 43/122/122 44/124/124
f 45/125/125 41/126/126 46/127/127
f 46/127/127 41/126/126 44/128/128
f 45/129/129 46/130/130 47/131/131
f 47/131/131 46/130/130 48/132/132
f 42/133/133 47/134/134 43/135/135
f 43/135/135 47/134/134 48/136/136
f 48/137/137 46/138/138 43/139/139
f 43/139/139 46/138/138 44/140/140
f 42/141/141 41/142/142 47/143/143
f 47/143/143 41/142/142 45/144/144

g Solid1:6

v -600.000000 300.000000 -7325.000000
v -600.000000 605.000000 -7325.000000
v -600.000000 605.000000 -605.000000
v -600.000000 300.000000 -605.000000
v -2250.000000 300.000000 -7325.000000
v -2250.000000 300.000000 -605.000000
v -2250.000000 605.000000 -7325.000000
v -2250.000000 605.000000 -605.000000
vt -0.000000 0.000000 0.000000
vt 0.750492 0.000000 0.000000
vt -0.000000 16.535433 0.000000
vt 0.750492 16.535433 0.000000
vt 0.000000 0.000000 0.000000
vt 4.060039 0.000000 0.000000
vt 0.000000 16.535433 0.000000
vt 4.060039 16.535433 0.000000
vt 0.000000 0.000000 0.000000
vt 0.750492 0.000000 0.000000
vt 0.000000 16.535433 0.000000
vt 0.750492 16.535433 0.000000
vt -0.000000 0.000000 0.000000
vt 4.060039 0.000000 0.000000
vt -0.000000 16.535433 0.000000
vt 4.060039 16.535433 0.000000
vt -0.375246 -2.030020 0.000000
vt 0.375246 -2.030020 0.000000
vt -0.375246 2.030020 0.000000
vt 0.375246 2.030020 0.000000
vt 0.375246 2.030020 0.000000
vt -0.375246 2.030020 0.000000
vt 0.375246 -2.030020 0.000000
vt -0.375246 -2.030020 0.000000
vn 0.100000 0.000000 -0.000000
vn 0.100000 0.000000 -0.000000
vn 0.100000 0.000000 -0.000000
vn 0.100000 0.000000 -0.000000
vn 0.000000 -0.100000 -0.000000
vn 0.000000 -0.100000 -0.000000
vn 0.000000 -0.100000 -0.000000
vn 0.000000 -0.100000 -0.000000
vn -0.100000 -0.000000 0.000000
vn -0.100000 -0.000000 0.000000
vn -0.100000 -0.000000 0.000000
vn -0.100000 -0.000000 0.000000
vn -0.000000 0.100000 0.000000
vn -0.000000 0.100000 0.000000
vn -0.000000 0.100000 0.000000
vn -0.000000 0.100000 0.000000
vn 0.000000 0.000000 0.100000
vn 0.000000 0.000000 0.100000
vn 0.000000 0.000000 0.100000
vn 0.000000 0.000000 0.100000
vn -0.000000 0.000000 -0.100000
vn -0.000000 0.000000 -0.100000
vn -0.000000 0.000000 -0.100000
vn -0.000000 0.000000 -0.100000
f 49/145/145 50/146/146 52/147/147
f 52/147/147 50/146/146 51/148/148
f 53/149/149 49/150/150 54/151/151
f 54/151/151 49/150/150 52/152/152
f 55/153/153 53/154/154 56/155/155
f 56/155/155 53/154/154 54/156/156
f 50/157/157 55/158/158 51/159/159
f 51/159/159 55/158/158 56/160/160
f 56/161/161 54/162/162 51/163/163
f 51/163/163 54/162/162 52/164/164
f 50/165/165 49/166/166 55/167/167
f 55/167/167 49/166/166 53/168/168

g Solid1:7

v -2250.000000 20276.000000 -605.000000
v -2250.000000 20681.000000 -605.000000
v -2250.000000 20681.000000 -7325.000000
v -2250.000000 20276.000000 -7325.000000
v -600.000000 20276.000000 -605.000000
v -600.000000 20276.000000 -7325.000000
v -600.000000 20681.000000 -605.000000
v -600.000000 20681.000000 -7325.000000
vt -0.000000 0.000000 0.000000
vt 0.996555 0.000000 0.000000
vt -0.000000 16.535433 0.000000
vt 0.996555 16.535433 0.000000
vt 0.000000 0.000000 0.000000
vt 4.060039 0.000000 0.000000
vt 0.000000 16.535433 0.000000
vt 4.060039 16.535433 0.000000
vt 0.000000 0.000000 0.000000
vt 0.996555 0.000000 0.000000
vt 0.000000 16.535433 0.000000
vt 0.996555 16.535433 0.000000
vt -0.000000 0.000000 0.000000
vt 4.060039 0.000000 0.000000
vt -0.000000 16.535433 0.000000
vt 4.060039 16.535433 0.000000
vt -0.498278 -2.030020 0.000000
vt 0.498278 -2.030020 0.000000
vt -0.498278 2.030020 0.000000
vt 0.498278 2.030020 0.000000
vt 0.498278 2.030020 0.000000
vt -0.498278 2.030020 0.000000
vt 0.498278 -2.030020 0.000000
vt -0.498278 -2.030020 0.000000
vn -0.100000 -0.000000 0.000000
vn -0.100000 -0.000000 0.000000
vn -0.100000 -0.000000 0.000000
vn -0.100000 -0.000000 0.000000
vn 0.000000 -0.100000 -0.000000
vn 0.000000 -0.100000 -0.000000
vn 0.000000 -0.100000 -0.000000
vn 0.000000 -0.100000 -0.000000
vn 0.100000 0.000000 -0.000000
vn 0.100000 0.000000 -0.000000
vn 0.100000 0.000000 -0.000000
vn 0.100000 0.000000 -0.000000
vn -0.000000 0.100000 0.000000
vn -0.000000 0.100000 0.000000
vn -0.000000 0.100000 0.000000
vn -0.000000 0.100000 0.000000
vn -0.000000 0.000000 -0.100000
vn -0.000000 0.000000 -0.100000
vn -0.000000 0.000000 -0.100000
vn -0.000000 0.000000 -0.100000
vn 0.000000 -0.000000 0.100000
vn 0.000000 -0.000000 0.100000
vn 0.000000 -0.000000 0.100000
vn 0.000000 -0.000000 0.100000
f 57/169/169 58/170/170 60/171/171
f 60/171/171 58/170/170 59/172/172
f 61/173/173 57/174/174 62/175/175
f 62/175/175 57/174/174 60/176/176
f 63/177/177 61/178/178 64/179/179
f 64/179/179 61/178/178 62/180/180
f 58/181/181 63/182/182 59/183/183
f 59/183/183 63/182/182 64/184/184
f 64/185/185 62/186/186 59/187/187
f 59/187/187 62/186/186 60/188/188
f 58/189/189 57/190/190 63/191/191
f 63/191/191 57/190/190 61/192/192

g Solid1:8

v -2250.000000 300.000000 -7830.000000
v -2250.000000 300.000000 -7325.000000
v -2250.000000 20681.000000 -7325.000000
v -2250.000000 20681.000000 -7830.000000
v -600.000000 300.000000 -7830.000000
v -600.000000 20681.000000 -7830.000000
v -600.000000 300.000000 -7325.000000
v -600.000000 20681.000000 -7325.000000
vt 1.242618 0.000000 0.000000
vt 1.242618 50.150098 0.000000
vt -0.000000 0.000000 0.000000
vt -0.000000 50.150098 0.000000
vt 0.000000 0.000000 0.000000
vt 4.060039 0.000000 0.000000
vt 0.000000 50.150098 0.000000
vt 4.060039 50.150098 0.000000
vt 1.242618 0.000000 0.000000
vt 1.242618 50.150098 0.000000
vt 0.000000 0.000000 0.000000
vt 0.000000 50.150098 0.000000
vt -0.000000 0.000000 0.000000
vt 4.060039 0.000000 0.000000
vt -0.000000 50.150098 0.000000
vt 4.060039 50.150098 0.000000
vt -0.621309 -2.030020 0.000000
vt 0.621309 -2.030020 0.000000
vt -0.621309 2.030020 0.000000
vt 0.621309 2.030020 0.000000
vt 0.621309 2.030020 0.000000
vt -0.621309 2.030020 0.000000
vt 0.621309 -2.030020 0.000000
vt -0.621309 -2.030020 0.000000
vn -0.100000 -0.000000 -0.000000
vn -0.100000 -0.000000 -0.000000
vn -0.100000 -0.000000 -0.000000
vn -0.100000 -0.000000 -0.000000
vn 0.000000 0.000000 -0.100000
vn 0.000000 0.000000 -0.100000
vn 0.000000 0.000000 -0.100000
vn 0.000000 0.000000 -0.100000
vn 0.100000 0.000000 -0.000000
vn 0.100000 0.000000 -0.000000
vn 0.100000 0.000000 -0.000000
vn 0.100000 0.000000 -0.000000
vn -0.000000 -0.000000 0.100000
vn -0.000000 -0.000000 0.100000
vn -0.000000 -0.000000 0.100000
vn -0.000000 -0.000000 0.100000
vn -0.000000 0.100000 0.000000
vn -0.000000 0.100000 0.000000
vn -0.000000 0.100000 0.000000
vn -0.000000 0.100000 0.000000
vn 0.000000 -0.100000 -0.000000
vn 0.000000 -0.100000 -0.000000
vn 0.000000 -0.100000 -0.000000
vn 0.000000 -0.100000 -0.000000
f 66/193/193 67/194/194 65/195/195
f 65/195/195 67/194/194 68/196/196
f 69/197/197 65/198/198 70/199/199
f 70/199/199 65/198/198 68/200/200
f 69/201/201 70/202/202 71/203/203
f 71/203/203 70/202/202 72/204/204
f 66/205/205 71/206/206 67/207/207
f 67/207/207 71/206/206 72/208/208
f 72/209/209 70/210/210 67/211/211
f 67/211/211 70/210/210 68/212/212
f 66/213/213 65/214/214 71/215/215
f 71/215/215 65/214/214 69/216/216

g Solid1:9

v 0.000000 21481.002581 -8430.002581
v -2100.000000 27250.705162 -14199.705162
v -2100.000000 -6269.700000 -14199.705162
v -0.000000 -499.997419 -8430.002581
v 0.000000 27250.705162 6269.700000
v 0.000000 27250.705162 -14199.705162
v -2100.000000 27250.705162 6269.700000
v -0.000000 -6269.700000 6269.700000
v -0.000000 -6269.700000 -14199.705162
v -0.000000 -499.997419 499.997419
v 0.000000 21481.002581 499.997419
v -2100.000000 -6269.700000 6269.700000
vt 0.000000 0.000000 0.000000
vt 20.144322 -18.929470 0.000000
vt 0.000000 72.116142 0.000000
vt 20.144322 91.045612 0.000000
vt 3.444882 9.464735 0.000000
vt -3.444882 9.464735 0.000000
vt 3.444882 -57.692106 0.000000
vt -3.444882 -57.692106 0.000000
vt -0.000000 33.578421 0.000000
vt -18.929470 14.648950 0.000000
vt -0.000000 -33.578421 0.000000
vt -18.929470 -14.648950 0.000000
vt -91.045612 -14.648950 0.000000
vt -109.975083 33.578421 0.000000
vt -91.045612 14.648950 0.000000
vt -109.975083 -33.578421 0.000000
vt -6.889764 -33.578421 0.000000
vt 0.000000 -33.578421 0.000000
vt -6.889764 33.578421 0.000000
vt 0.000000 33.578421 0.000000
vt -20.144322 33.578421 0.000000
vt -20.144322 -33.578421 0.000000
vt -0.000000 14.648950 0.000000
vt -0.000000 -14.648950 0.000000
vt 20.144322 33.578421 0.000000
vt 0.000000 14.648950 0.000000
vt 20.144322 -33.578421 0.000000
vt 0.000000 -14.648950 0.000000
vt -20.144322 91.045612 0.000000
vt -20.144322 -18.929470 0.000000
vt -0.000000 72.116142 0.000000
vt -0.000000 0.000000 0.000000
vt -6.889764 -18.929470 0.000000
vt -0.000000 -18.929470 0.000000
vt -6.889764 91.045612 0.000000
vt 0.000000 91.045612 0.000000
vt 6.889764 91.045612 0.000000
vt 0.000000 91.045612 0.000000
vt 6.889764 -18.929470 0.000000
vt 0.000000 -18.929470 0.000000
vn -0.093969 0.000000 0.034202
vn -0.093969 0.000000 0.034202
vn -0.093969 0.000000 0.034202
vn -0.093969 0.000000 0.034202
vn 0.000000 0.100000 0.000000
vn 0.000000 0.100000 0.000000
vn 0.000000 0.100000 0.000000
vn 0.000000 0.100000 0.000000
vn 0.100000 0.000000 -0.000000
vn 0.100000 0.000000 -0.000000
vn 0.100000 0.000000 -0.000000
vn 0.100000 0.000000 -0.000000
vn 0.100000 0.000000 -0.000000
vn 0.100000 0.000000 -0.000000
vn 0.100000 0.000000 -0.000000
vn 0.100000 0.000000 -0.000000
vn -0.000000 -0.100000 -0.000000
vn -0.000000 -0.100000 -0.000000
vn -0.000000 -0.100000 -0.000000
vn -0.000000 -0.100000 -0.000000
vn -0.093969 0.034202 0.000000
vn -0.093969 0.034202 0.000000
vn -0.093969 0.034202 0.000000
vn -0.093969 0.034202 0.000000
vn -0.093969 -0.034202 0.000000
vn -0.093969 -0.034202 0.000000
vn -0.093969 -0.034202 0.000000
vn -0.093969 -0.034202 0.000000
vn -0.093969 0.000000 -0.034202
vn -0.093969 0.000000 -0.034202
vn -0.093969 0.000000 -0.034202
vn -0.093969 0.000000 -0.034202
vn -0.000000 -0.000000 0.100000
vn -0.000000 -0.000000 0.100000
vn -0.000000 -0.000000 0.100000
vn -0.000000 -0.000000 0.100000
vn -0.000000 0.000000 -0.100000
vn -0.000000 0.000000 -0.100000
vn -0.000000 0.000000 -0.100000
vn -0.000000 0.000000 -0.100000
usemtl 255,255,255_2
f 73/217/217 74/218/218 76/219/219
f 76/219/219 74/218/218 75/220/220
f 78/221/221 74/222/222 77/223/223
f 77/223/223 74/222/222 79/224/224
f 81/225/225 76/226/226 80/227/227
f 80/227/227 76/226/226 82/228/228
f 80/227/227 82/228/228 83/229/229
f 81/225/225 78/230/230 76/226/226
f 76/226/226 78/230/230 73/231/231
f 73/231/231 78/230/230 77/232/232
f 73/231/231 77/232/232 83/229/229
f 83/229/229 77/232/232 80/227/227
f 80/233/233 84/234/234 81/235/235
f 81/235/235 84/234/234 75/236/236
f 75/237/237 84/238/238 76/239/239
f 76/239/239 84/238/238 82/240/240
f 74/241/241 73/242/242 79/243/243
f 79/243/243 73/242/242 83/244/244
f 84/245/245 79/246/246 82/247/247
f 82/247/247 79/246/246 83/248/248
f 77/249/249 79/250/250 80/251/251
f 80/251/251 79/250/250 84/252/252
f 81/253/253 75/254/254 78/255/255
f 78/255/255 75/254/254 74/256/256

# 84 vertices
# 256 texture params
# 256 normals
# 132 facets

# 10 groups
